<mxfile host="drawio-plugin" modified="2022-02-22T03:46:07.292Z" agent="5.0 (X11; Linux x86_64) AppleWebKit/537.36 (KHTML, like Gecko) Chrome/89.0.4389.114 Safari/537.36" etag="doz8yyMSPPcluXXV-iBX" version="15.5.4" type="embed"><diagram id="xGc4d0vdUnooj7DaZEFL" name="Page-1"><mxGraphModel dx="1158" dy="643" grid="1" gridSize="10" guides="1" tooltips="1" connect="1" arrows="1" fold="1" page="1" pageScale="1" pageWidth="827" pageHeight="1169" math="0" shadow="0"><root><mxCell id="0"/><mxCell id="1" parent="0"/><mxCell id="LwF9lTMq37MXV0fiyUSh-4" value="&lt;div&gt;&lt;span&gt;Garfada&lt;/span&gt;&lt;/div&gt;" style="rounded=0;whiteSpace=wrap;html=1;labelPosition=center;verticalLabelPosition=top;align=center;verticalAlign=bottom;" parent="1" vertex="1"><mxGeometry x="459" y="80" width="691" height="960" as="geometry"/></mxCell><mxCell id="LwF9lTMq37MXV0fiyUSh-1" value="&lt;div&gt;User&lt;/div&gt;" style="shape=umlActor;html=1;verticalLabelPosition=bottom;verticalAlign=top;align=center;" parent="1" vertex="1"><mxGeometry x="310" y="200" width="30" height="60" as="geometry"/></mxCell><mxCell id="LwF9lTMq37MXV0fiyUSh-7" value="register meal" style="ellipse;whiteSpace=wrap;html=1;" parent="1" vertex="1"><mxGeometry x="500" y="360" width="110" height="70" as="geometry"/></mxCell><mxCell id="LwF9lTMq37MXV0fiyUSh-8" value="register dish" style="ellipse;whiteSpace=wrap;html=1;" parent="1" vertex="1"><mxGeometry x="500" y="270" width="110" height="70" as="geometry"/></mxCell><mxCell id="LwF9lTMq37MXV0fiyUSh-9" value="register employee" style="ellipse;whiteSpace=wrap;html=1;" parent="1" vertex="1"><mxGeometry x="500" y="180" width="110" height="70" as="geometry"/></mxCell><mxCell id="LwF9lTMq37MXV0fiyUSh-10" value="&lt;div&gt;register business&lt;/div&gt;" style="ellipse;whiteSpace=wrap;html=1;" parent="1" vertex="1"><mxGeometry x="500" y="90" width="110" height="70" as="geometry"/></mxCell><mxCell id="LwF9lTMq37MXV0fiyUSh-19" value="try to distribute a meal to employee" style="ellipse;whiteSpace=wrap;html=1;" parent="1" vertex="1"><mxGeometry x="500" y="450" width="110" height="70" as="geometry"/></mxCell><mxCell id="LwF9lTMq37MXV0fiyUSh-24" value="&lt;div&gt;associate employee&lt;/div&gt;&lt;div&gt;to bussiness&lt;br&gt;&lt;/div&gt;" style="ellipse;whiteSpace=wrap;html=1;" parent="1" vertex="1"><mxGeometry x="664" y="180" width="110" height="70" as="geometry"/></mxCell><mxCell id="LwF9lTMq37MXV0fiyUSh-28" value="&amp;lt;&amp;lt;include&amp;gt;&amp;gt;" style="edgeStyle=none;html=1;endArrow=open;verticalAlign=bottom;dashed=1;labelBackgroundColor=none;rounded=0;entryX=0;entryY=0.5;entryDx=0;entryDy=0;" parent="1" edge="1" target="LwF9lTMq37MXV0fiyUSh-24"><mxGeometry width="160" relative="1" as="geometry"><mxPoint x="602.9999999999999" y="214.65999999999985" as="sourcePoint"/><mxPoint x="683.0000000000001" y="215" as="targetPoint"/></mxGeometry></mxCell><mxCell id="LwF9lTMq37MXV0fiyUSh-34" value="confirm distribuition to employee" style="ellipse;whiteSpace=wrap;html=1;" parent="1" vertex="1"><mxGeometry x="664" y="400" width="110" height="70" as="geometry"/></mxCell><mxCell id="LwF9lTMq37MXV0fiyUSh-35" value="reject distribuition to employee" style="ellipse;whiteSpace=wrap;html=1;" parent="1" vertex="1"><mxGeometry x="664" y="480" width="112" height="70" as="geometry"/></mxCell><mxCell id="LwF9lTMq37MXV0fiyUSh-36" value="&amp;lt;&amp;lt;extend&amp;gt;&amp;gt;" style="edgeStyle=none;html=1;startArrow=open;endArrow=none;startSize=12;verticalAlign=bottom;dashed=1;labelBackgroundColor=none;rounded=0;entryX=0;entryY=0.5;entryDx=0;entryDy=0;exitX=1;exitY=0.5;exitDx=0;exitDy=0;" parent="1" source="LwF9lTMq37MXV0fiyUSh-19" target="LwF9lTMq37MXV0fiyUSh-34" edge="1"><mxGeometry width="160" relative="1" as="geometry"><mxPoint x="807.9999999999998" y="480" as="sourcePoint"/><mxPoint x="720" y="540" as="targetPoint"/></mxGeometry></mxCell><mxCell id="LwF9lTMq37MXV0fiyUSh-37" value="&amp;lt;&amp;lt;extend&amp;gt;&amp;gt;" style="edgeStyle=none;html=1;startArrow=open;endArrow=none;startSize=12;verticalAlign=bottom;dashed=1;labelBackgroundColor=none;rounded=0;entryX=0;entryY=0.5;entryDx=0;entryDy=0;exitX=1;exitY=0.5;exitDx=0;exitDy=0;" parent="1" source="LwF9lTMq37MXV0fiyUSh-19" target="LwF9lTMq37MXV0fiyUSh-35" edge="1"><mxGeometry width="160" relative="1" as="geometry"><mxPoint x="640" y="490" as="sourcePoint"/><mxPoint x="708" y="630" as="targetPoint"/></mxGeometry></mxCell><mxCell id="LwF9lTMq37MXV0fiyUSh-42" value="list meals" style="ellipse;whiteSpace=wrap;html=1;" parent="1" vertex="1"><mxGeometry x="500" y="910" width="110" height="70" as="geometry"/></mxCell><mxCell id="LwF9lTMq37MXV0fiyUSh-43" value="list dishs" style="ellipse;whiteSpace=wrap;html=1;" parent="1" vertex="1"><mxGeometry x="500" y="820" width="110" height="70" as="geometry"/></mxCell><mxCell id="LwF9lTMq37MXV0fiyUSh-44" value="list employees" style="ellipse;whiteSpace=wrap;html=1;" parent="1" vertex="1"><mxGeometry x="500" y="730" width="110" height="70" as="geometry"/></mxCell><mxCell id="LwF9lTMq37MXV0fiyUSh-45" value="&lt;div&gt;list businesses&lt;/div&gt;" style="ellipse;whiteSpace=wrap;html=1;" parent="1" vertex="1"><mxGeometry x="500" y="640" width="110" height="70" as="geometry"/></mxCell><mxCell id="LwF9lTMq37MXV0fiyUSh-52" value="&amp;lt;&amp;lt;extend&amp;gt;&amp;gt;" style="edgeStyle=none;html=1;startArrow=open;endArrow=none;startSize=12;verticalAlign=bottom;dashed=1;labelBackgroundColor=none;rounded=0;entryX=0;entryY=0.5;entryDx=0;entryDy=0;exitX=1;exitY=0.5;exitDx=0;exitDy=0;" parent="1" source="LwF9lTMq37MXV0fiyUSh-42" target="oOK-4Qcx4Y4q6fW5dUkM-2" edge="1"><mxGeometry width="160" relative="1" as="geometry"><mxPoint x="595.0000000000001" y="860" as="sourcePoint"/><mxPoint x="680.0000000000001" y="990" as="targetPoint"/></mxGeometry></mxCell><mxCell id="LwF9lTMq37MXV0fiyUSh-53" value="&amp;lt;&amp;lt;extend&amp;gt;&amp;gt;" style="edgeStyle=none;html=1;startArrow=open;endArrow=none;startSize=12;verticalAlign=bottom;dashed=1;labelBackgroundColor=none;rounded=0;entryX=0;entryY=0.5;entryDx=0;entryDy=0;" parent="1" target="oOK-4Qcx4Y4q6fW5dUkM-1" edge="1"><mxGeometry width="160" relative="1" as="geometry"><mxPoint x="610" y="950" as="sourcePoint"/><mxPoint x="676.6400000000001" y="901.44" as="targetPoint"/></mxGeometry></mxCell><mxCell id="LwF9lTMq37MXV0fiyUSh-58" value="" style="edgeStyle=none;html=1;endArrow=none;verticalAlign=bottom;rounded=0;entryX=0;entryY=0.5;entryDx=0;entryDy=0;" parent="1" target="LwF9lTMq37MXV0fiyUSh-10" edge="1"><mxGeometry width="160" relative="1" as="geometry"><mxPoint x="340" y="229.70999999999998" as="sourcePoint"/><mxPoint x="500" y="229.70999999999998" as="targetPoint"/></mxGeometry></mxCell><mxCell id="LwF9lTMq37MXV0fiyUSh-61" value="" style="edgeStyle=none;html=1;endArrow=none;verticalAlign=bottom;rounded=0;entryX=0;entryY=0.5;entryDx=0;entryDy=0;" parent="1" target="LwF9lTMq37MXV0fiyUSh-9" edge="1"><mxGeometry width="160" relative="1" as="geometry"><mxPoint x="340" y="230" as="sourcePoint"/><mxPoint x="510" y="135" as="targetPoint"/></mxGeometry></mxCell><mxCell id="LwF9lTMq37MXV0fiyUSh-62" value="" style="edgeStyle=none;html=1;endArrow=none;verticalAlign=bottom;rounded=0;entryX=0;entryY=0.5;entryDx=0;entryDy=0;" parent="1" target="LwF9lTMq37MXV0fiyUSh-8" edge="1"><mxGeometry width="160" relative="1" as="geometry"><mxPoint x="340" y="230" as="sourcePoint"/><mxPoint x="510" y="225" as="targetPoint"/></mxGeometry></mxCell><mxCell id="LwF9lTMq37MXV0fiyUSh-63" value="" style="edgeStyle=none;html=1;endArrow=none;verticalAlign=bottom;rounded=0;entryX=0;entryY=0.5;entryDx=0;entryDy=0;" parent="1" target="LwF9lTMq37MXV0fiyUSh-7" edge="1"><mxGeometry width="160" relative="1" as="geometry"><mxPoint x="340" y="230" as="sourcePoint"/><mxPoint x="510" y="315" as="targetPoint"/></mxGeometry></mxCell><mxCell id="LwF9lTMq37MXV0fiyUSh-64" value="" style="edgeStyle=none;html=1;endArrow=none;verticalAlign=bottom;rounded=0;entryX=0;entryY=0.5;entryDx=0;entryDy=0;" parent="1" target="LwF9lTMq37MXV0fiyUSh-19" edge="1"><mxGeometry width="160" relative="1" as="geometry"><mxPoint x="340" y="230" as="sourcePoint"/><mxPoint x="510" y="405" as="targetPoint"/></mxGeometry></mxCell><mxCell id="LwF9lTMq37MXV0fiyUSh-65" value="" style="edgeStyle=none;html=1;endArrow=none;verticalAlign=bottom;rounded=0;entryX=0;entryY=0.5;entryDx=0;entryDy=0;" parent="1" target="LwF9lTMq37MXV0fiyUSh-45" edge="1"><mxGeometry width="160" relative="1" as="geometry"><mxPoint x="340" y="230" as="sourcePoint"/><mxPoint x="510" y="495" as="targetPoint"/></mxGeometry></mxCell><mxCell id="LwF9lTMq37MXV0fiyUSh-66" value="" style="edgeStyle=none;html=1;endArrow=none;verticalAlign=bottom;rounded=0;entryX=0;entryY=0.5;entryDx=0;entryDy=0;" parent="1" target="LwF9lTMq37MXV0fiyUSh-44" edge="1"><mxGeometry width="160" relative="1" as="geometry"><mxPoint x="340" y="230" as="sourcePoint"/><mxPoint x="510" y="685" as="targetPoint"/></mxGeometry></mxCell><mxCell id="LwF9lTMq37MXV0fiyUSh-67" value="" style="edgeStyle=none;html=1;endArrow=none;verticalAlign=bottom;rounded=0;entryX=0;entryY=0.5;entryDx=0;entryDy=0;" parent="1" target="LwF9lTMq37MXV0fiyUSh-43" edge="1"><mxGeometry width="160" relative="1" as="geometry"><mxPoint x="340" y="230" as="sourcePoint"/><mxPoint x="510" y="775" as="targetPoint"/></mxGeometry></mxCell><mxCell id="LwF9lTMq37MXV0fiyUSh-68" value="" style="edgeStyle=none;html=1;endArrow=none;verticalAlign=bottom;rounded=0;entryX=0;entryY=0.5;entryDx=0;entryDy=0;" parent="1" target="LwF9lTMq37MXV0fiyUSh-42" edge="1"><mxGeometry width="160" relative="1" as="geometry"><mxPoint x="340" y="230" as="sourcePoint"/><mxPoint x="510" y="865" as="targetPoint"/></mxGeometry></mxCell><mxCell id="oOK-4Qcx4Y4q6fW5dUkM-1" value="list by employee" style="ellipse;whiteSpace=wrap;html=1;" parent="1" vertex="1"><mxGeometry x="680" y="870" width="110" height="70" as="geometry"/></mxCell><mxCell id="oOK-4Qcx4Y4q6fW5dUkM-2" value="list by business" style="ellipse;whiteSpace=wrap;html=1;" parent="1" vertex="1"><mxGeometry x="680" y="950" width="110" height="70" as="geometry"/></mxCell><mxCell id="2" value="print receipt" style="ellipse;whiteSpace=wrap;html=1;" vertex="1" parent="1"><mxGeometry x="810" y="400" width="110" height="70" as="geometry"/></mxCell><mxCell id="3" value="&amp;lt;&amp;lt;include&amp;gt;&amp;gt;" style="html=1;verticalAlign=bottom;labelBackgroundColor=none;endArrow=open;endFill=0;dashed=1;rounded=0;exitX=1;exitY=0.5;exitDx=0;exitDy=0;entryX=0;entryY=0.5;entryDx=0;entryDy=0;" edge="1" parent="1" source="LwF9lTMq37MXV0fiyUSh-34" target="2"><mxGeometry width="160" relative="1" as="geometry"><mxPoint x="870" y="340" as="sourcePoint"/><mxPoint x="1030" y="340" as="targetPoint"/></mxGeometry></mxCell></root></mxGraphModel></diagram></mxfile>